# AST/ASF file generated using VICON BodyLanguage
# -----------------------------------------------
:version 1.10
:name VICON
:units
  mass 1.0
  length 0.45
  angle deg
:documentation
   .ast/.asf automatically generated from VICON data using
   VICON BodyBuilder and BodyLanguage model FoxedUp or BRILLIANT.MOD
:root
   order TX TY TZ RX RY RZ
   axis XYZ
   position 0 0 0  
   orientation 0 0 0 
:bonedata
  begin
     id 1 
     name lhipjoint
     direction 0.700308 -0.549349 0.455834 
     length 2.59063 
     axis 0 0 0  XYZ
  end
  begin
     id 2 
     name lfemur
     direction 0.34202 -0.939693 0  
     length 6.31066  
     axis 0 0 20  XYZ
    dof rx ry rz
    limits (-160.0 20.0)
           (-70.0 70.0)
           (-60.0 70.0)
  end
  begin
     id 3 
     name ltibia
     direction 0.34202 -0.939693 0   
     length 7.36093   
     axis 0 0 20   XYZ
    dof rx
    limits (-10.0 170.0)
  end
  begin
     id 4 
     name lfoot
     direction 0.0905332 -0.248738 0.96433   
     length 2.0233   
     axis -90 7.62852e-016 20   XYZ
    dof rx rz
    limits (-45.0 90.0)
           (-70.0 20.0)
  end
  begin
     id 5 
     name ltoes
     direction 1.53573e-011 -4.21855e-011 1   
     length 1.01524   
     axis -90 7.62852e-016 20   XYZ
    dof rx
    limits (-90.0 20.0)
  end
  begin
     id 6 
     name rhipjoint
     direction -0.61416 -0.607328 0.503944   
     length 2.34332  
     axis 0 0 0  XYZ 
  end
  begin
     id 7 
     name rfemur
     direction -0.34202 -0.939693 0   
     length 6.58548   
     axis 0 0 -20   XYZ
    dof rx ry rz
    limits (-160.0 20.0)
           (-70.0 70.0)
           (-70.0 60.0)
  end
  begin
     id 8 
     name rtibia
     direction -0.34202 -0.939693 0   
     length 7.20707   
     axis 0 0 -20   XYZ
    dof rx
    limits (-10.0 170.0)
 end
 begin
     id 9 
     name rfoot
     direction -0.136772 -0.375778 0.916561   
     length 1.92184  
     axis -90 -7.62852e-016 -20   XYZ
    dof rx rz
    limits (-45.0 90.0)
           (-20.0 70.0)
  end
  begin
     id 10 
     name rtoes
     direction -1.53535e-011 -4.21828e-011 1   
     length 0.951089   
     axis -90 -7.62852e-016 -20   XYZ
    dof rx
    limits (-90.0 20.0)
  end
  begin
     id 11 
     name lowerback
     direction -0.0444974 0.988086 -0.147332   
     length 1.9609   
     axis 0 0 0   XYZ
    dof rx ry rz
    limits (-20.0 45.0)
           (-30.0 30.0)
           (-30.0 30.0)
  end
  begin
     id 12 
     name upperback
     direction 0.00613146 0.999513 0.0306081   
     length 1.94944   
     axis 0 0 0   XYZ
    dof rx ry rz
    limits (-20.0 45.0)
           (-30.0 30.0)
           (-30.0 30.0)
  end
  begin
     id 13 
     name thorax
     direction 0.0254621 0.994518 0.101418   
     length 2.0119   
     axis 0 0 0   XYZ
    dof rx ry rz
    limits (-20.0 45.0)
           (-30.0 30.0)
           (-30.0 30.0)
  end
  begin
     id 14 
     name lowerneck
     direction 0.0168698 0.977854 0.208608   
     length 1.6375   
     axis 0 0 0   XYZ
    dof rx ry rz
    limits (-20.0 45.0)
           (-30.0 30.0)
           (-30.0 30.0)
  end
  begin
     id 15 
     name upperneck
     direction -0.0283988 0.989338 -0.142843   
     length 1.6851   
     axis 0 0 0   XYZ
    dof rx ry rz
    limits (-20.0 45.0)
           (-30.0 30.0)
           (-30.0 30.0)
  end
  begin
     id 16
     name head
     direction -0.0129422 0.99741 -0.0707489  
     length 1.69029  
     axis 0 0 0   XYZ
    dof rx ry rz
    limits (-20.0 45.0)
           (-30.0 30.0)
           (-30.0 30.0)
  end
  begin
     id 17 
     name lclavicle
     direction 0.820295 0.564628 -0.0911715  
     length 3.16484  
     axis 0 0 0   XYZ
    dof ry rz
    limits (-20.0 10.0)
           (0.0 20.0)
  end
  begin
     id 18 
     name lhumerus
     direction 1 -4.48969e-011 1.00186e-027   
     length 5.17853   
     axis 180 -30 -90   XYZ
    dof rx ry rz
    limits (-60.0 90.0)
           (-90.0 90.0)
           (-90.0 90.0)
  end
  begin
     id 19
     name lradius
     direction 1 -4.48966e-011 -1.52922e-027   
     length 3.40399   
     axis 180 -30 -90   XYZ
    dof rx
    limits (-10.0 170.0)
  end
  begin
     id 20
     name lwrist
     direction 1 -4.48981e-011 -3.80893e-027   
     length 1.70199   
     axis 1.1049e-015 90 90   XYZ
    dof ry
    limits (-180.0 0.0)
 end
  begin
     id 21 
     name lhand
     direction 1 -4.48957e-011 -7.61786e-027   
     length 0.708964   
     axis 4.86085e-015 90 90   XYZ
    dof rx rz
    limits (-90.0 90.0)
           (-45.0 45.0)
  end
  begin
     id 22 
     name lfingers
     direction 1 -4.48929e-011 -1.52357e-026   
     length 0.571585   
     axis 9.7217e-015 90 90   XYZ
    dof rx
    limits (0.0 90.0)
  end
  begin
     id 23
     name lthumb
     direction 0.707107 -6.34905e-011 0.707107   
     length 0.820685   
     axis -90 45 2.85299e-015   XYZ
    dof rx rz
    limits (-45.0 45.0)
           (-45.0 45.0)
  end
  begin
     id 24 
     name rclavicle
     direction -0.858602 0.463947 -0.218075   
     length 3.35137  
     axis 0 0 0   XYZ 
    dof ry rz
    limits (-10.0 20.0)
           (-20.0 0.0)
  end
  begin
     id 25 
     name rhumerus
     direction -1 -4.48969e-011 -1.98511e-027  
     length 5.42351   
     axis 180 30 90   XYZ
    dof rx ry rz
    limits (-90.0 60.0)
           (-90.0 90.0)
           (-90.0 90.0)
  end
  begin
     id 26 
     name rradius
     direction -1 -4.48961e-011 -2.82624e-027   
     length 3.42066   
     axis 180 30 90   XYZ
    dof rx
    limits (-10.0 170.0)
  end
  begin
     id 27 
     name rwrist
     direction -1 -4.48966e-011 -3.80893e-027   
     length 1.71033   
     axis 1.1049e-015 -90 -90   XYZ
    dof ry
    limits (-180.0 0.0)
  end
  begin
     id 28
     name rhand
     direction -1 -4.48964e-011 -7.61786e-027   
     length 0.743608   
     axis 4.86085e-015 -90 -90   XYZ
    dof rx rz
    limits (-90.0 90.0)
           (-45.0 45.0)
  end
  begin
     id 29
     name rfingers
     direction -1 -4.48961e-011 -1.52357e-026   
     length 0.599516   
     axis 9.7217e-015 -90 -90   XYZ
    dof rx
    limits (0.0 90.0)
  end
  begin
     id 30
     name rthumb
     direction -0.707107 -6.34913e-011 0.707107   
     length 0.860789   
     axis -90 -45 -2.85299e-015   XYZ
    dof rx rz
    limits (-45.0 45.0)
           (-45.0 45.0)
  end
:hierarchy
  begin
    root lhipjoint rhipjoint lowerback
    lhipjoint lfemur
    lfemur ltibia
    ltibia lfoot
    lfoot ltoes
    rhipjoint rfemur
    rfemur rtibia
    rtibia rfoot
    rfoot rtoes
    lowerback upperback
    upperback thorax
    thorax lowerneck lclavicle rclavicle
    lowerneck upperneck
    upperneck head
    lclavicle lhumerus
    lhumerus lradius
    lradius lwrist
    lwrist lhand lthumb
    lhand lfingers
    rclavicle rhumerus
    rhumerus rradius
    rradius rwrist
    rwrist rhand rthumb
    rhand rfingers
  end

#!OML:ASF E:\mmandel\Project 1\Capture day 1\Session 2\Subject.ASF
:FULLY-SPECIFIED
:DEGREES
1
root 3.86048 16.3183 -0.571932 27.6428 84.6603 22.3904
lowerback -3.70464 0.792049 -6.21993
upperback -1.4569 1.29594 -0.127619
thorax 0.440211 0.677828 3.40727
lowerneck -17.4915 0.625367 5.86134
upperneck 28.653 1.64862 -6.5703
head 12.4909 0.705914 -3.22195
rclavicle -1.34925e-014 -6.4605e-015
rhumerus -29.3068 -3.72227 -83.3489
rradius 21.6439
rwrist -7.5709
rhand -9.30581 29.3561
rfingers 7.12502
rthumb 16.652 0.0504433
lclavicle -1.34925e-014 -6.4605e-015
lhumerus -30.1583 -14.4234 92.7884
lradius 23.1815
lwrist 24.8341
lhand 5.49844 -26.2449
lfingers 7.12502
lthumb 30.8453 1.18599
rfemur -14.6492 10.9304 13.8364
rtibia 31.3575
rfoot -26.2212 -16.9123
rtoes 13.7791
lfemur -7.6609 -5.70187 -21.2182
ltibia 22.3936
lfoot -20.8192 16.9703
ltoes 9.19463
2
root 3.87181 16.3579 -0.554872 29.5161 84.647 24.2247
lowerback -3.79145 0.819986 -6.34553
upperback -1.41985 1.34686 -0.211578
thorax 0.520704 0.70037 3.39494
lowerneck -17.288 0.997435 3.25319
upperneck 27.496 1.46885 -1.9267
head 11.9292 0.921493 -1.01589
rclavicle 7.26806e-015 1.39149e-015
rhumerus -29.3391 -3.70918 -83.4915
rradius 22.1112
rwrist -7.75719
rhand -9.23603 28.7556
rfingers 7.12502
rthumb 16.7192 -0.544392
lclavicle 7.26806e-015 1.39149e-015
lhumerus -33.3025 -22.2183 97.6686
lradius 24.4317
lwrist 20.6956
lhand -13.9769 -26.0052
lfingers 7.12502
lthumb 12.1514 3.62193
rfemur -15.2283 11.031 13.714
rtibia 32.4056
rfoot -27.5235 -17.2935
rtoes 12.3811
lfemur -6.45138 -5.61071 -21.319
ltibia 20.0826
lfoot -19.756 16.9267
ltoes 8.53818
3
root 3.88472 16.4151 -0.541838 29.9711 84.6674 24.6087
lowerback -3.85948 0.799624 -6.33642
upperback -1.36387 1.32614 -0.218055
thorax 0.619191 0.685385 3.38451
lowerneck -17.4377 0.989216 3.34911
upperneck 27.4047 1.43273 -2.00139
head 11.9242 0.900557 -1.06561
rclavicle -1.49679e-014 7.05686e-015
rhumerus -29.1987 -3.50548 -83.6475
rradius 22.3727
rwrist -7.99339
rhand -9.19934 28.6201
rfingers 7.12502
rthumb 16.7545 -0.676903
lclavicle -1.49679e-014 7.05686e-015
lhumerus -33.3454 -22.3963 97.8695
lradius 24.6557
lwrist 20.9019
lhand -14.5771 -25.4292
lfingers 7.12502
lthumb 11.5726 4.2313
rfemur -15.6285 11.0225 13.7181
rtibia 32.9008
rfoot -27.667 -18.0485
rtoes 9.76017
lfemur -5.83927 -5.63023 -21.3031
ltibia 18.8929
lfoot -19.1323 16.9881
ltoes 8.40243
4
root 3.89051 16.4157 -0.530486 30.1941 84.6371 24.81
lowerback -3.93777 0.769494 -6.35311
upperback -1.30626 1.29364 -0.192798
thorax 0.724931 0.664256 3.42107
lowerneck -17.3831 0.948125 3.59726
upperneck 27.1446 1.38169 -2.33515
head 11.814 0.8542 -1.23989
rclavicle 5.19636e-015 9.93923e-016
rhumerus -29.0843 -3.19423 -83.7709
rradius 22.5905
rwrist -8.22707
rhand -9.22433 28.5896
rfingers 7.12502
rthumb 16.7305 -0.709464
lclavicle 5.19636e-015 9.93923e-016
lhumerus -33.2709 -22.3885 97.9725
lradius 24.6694
lwrist 21.3099
lhand -14.5501 -25.5438
lfingers 7.12502
lthumb 11.5987 4.11524
rfemur -15.8153 10.8337 13.7155
rtibia 33.3104
rfoot -27.667 -17.8948
rtoes 9.30729
lfemur -5.21214 -5.79557 -21.311
ltibia 17.7391
lfoot -18.651 17.1685
ltoes 8.76291
5
root 3.89987 16.413 -0.516714 30.4785 84.5804 25.0984
lowerback -4.00983 0.756064 -6.45948
upperback -1.32753 1.28409 -0.137436
thorax 0.740406 0.659843 3.53883
lowerneck -17.3671 0.979489 3.65584
upperneck 27.1431 1.4761 -2.55477
head 11.8155 0.874576 -1.31753
rclavicle -1.26368e-014 -1.50082e-014
rhumerus -29.1346 -2.77628 -83.8701
rradius 22.7552
rwrist -8.55795
rhand -9.26035 28.382
rfingers 7.12502
rthumb 16.6958 -0.920017
lclavicle -1.26368e-014 -1.50082e-014
lhumerus -33.3514 -22.3519 98.2297
lradius 24.5531
lwrist 21.2017
lhand -14.7117 -26.0957
lfingers 7.12502
lthumb 11.4428 3.57201
rfemur -15.9004 10.8741 13.7108
rtibia 33.5603
rfoot -27.402 -17.9459
rtoes 8.78828
lfemur -4.78919 -5.68024 -21.3189
ltibia 16.9997
lfoot -18.365 17.2077
ltoes 8.25745
6
root 3.90817 16.4089 -0.501368 31.8745 84.5935 26.5212
lowerback -4.01642 0.71427 -6.61246
upperback -1.36113 1.23421 -0.124628
thorax 0.710936 0.637259 3.63563
lowerneck -17.053 0.908886 3.76301
upperneck 26.9703 1.36029 -2.58834
head 11.6816 0.830508 -1.36464
rclavicle 1.16149e-014 -4.96962e-015
rhumerus -29.1157 -2.55539 -83.948
rradius 22.6517
rwrist -8.72011
rhand -9.30183 28.5707
rfingers 7.12502
rthumb 16.6559 -0.734639
lclavicle 1.16149e-014 -4.96962e-015
lhumerus -33.4702 -22.1287 98.3681
lradius 24.5309
lwrist 20.8598
lhand -14.6789 -27.1193
lfingers 7.12502
lthumb 11.4745 2.54666
rfemur -15.8339 10.9954 13.6648
rtibia 33.6088
rfoot -27.3221 -18.1423
rtoes 8.56088
lfemur -4.72334 -5.30605 -21.3739
ltibia 16.9094
lfoot -17.9696 17.0694
ltoes 6.32682
7
root 3.91294 16.4061 -0.48787 33.2801 84.6236 27.9566
lowerback -3.98762 0.696908 -6.6604
upperback -1.33945 1.21246 -0.181088
thorax 0.719878 0.625637 3.60287
lowerneck -17.104 0.960252 3.85033
upperneck 26.9845 1.37638 -2.49322
head 11.6984 0.858453 -1.34186
rclavicle -1.25638e-015 2.56432e-014
rhumerus -28.9631 -2.72127 -83.9799
rradius 22.531
rwrist -8.56455
rhand -9.32391 28.9308
rfingers 7.12502
rthumb 16.6346 -0.376321
lclavicle -1.25638e-015 2.56432e-014
lhumerus -33.5055 -22.0374 98.3713
lradius 24.6398
lwrist 20.8147
lhand -14.3853 -27.4407
lfingers 7.12502
lthumb 11.7576 2.20927
rfemur -15.7398 11.0433 13.6273
rtibia 33.6299
rfoot -27.6707 -18.4733
rtoes 8.66315
lfemur -4.67531 -5.19894 -21.4289
ltibia 16.8785
lfoot -17.6828 16.989
ltoes 5.34317
8
root 3.91659 16.4043 -0.474633 33.0615 84.6919 27.7472
lowerback -3.87442 0.693031 -6.57822
upperback -1.40484 1.1933 -0.182988
thorax 0.592924 0.621836 3.55114
lowerneck -17.1972 0.943883 3.73745
upperneck 27.1578 1.32589 -2.27053
head 11.7804 0.855703 -1.24805
rclavicle -4.74754e-015 2.88238e-015
rhumerus -28.9958 -2.53986 -84.0937
rradius 22.6438
rwrist -8.68364
rhand -9.35653 28.7099
rfingers 7.12502
rthumb 16.6032 -0.599853
lclavicle -4.74754e-015 2.88238e-015
lhumerus -33.7223 -22.2156 98.5507
lradius 24.8022
lwrist 21.202
lhand -14.1432 -27.3082
lfingers 7.12502
lthumb 11.991 2.32832
rfemur -15.6498 11.1078 13.7596
rtibia 33.6047
rfoot -27.9496 -18.6916
rtoes 8.73146
lfemur -4.65935 -5.4064 -21.3307
ltibia 16.9133
lfoot -17.7526 17.1023
ltoes 5.12293
9
root 3.91939 16.4046 -0.460242 32.5347 84.8315 27.1825
lowerback -3.78784 0.631854 -6.49962
upperback -1.54967 1.09745 -0.121238
thorax 0.405667 0.583944 3.56422
lowerneck -16.9027 0.948028 3.77185
upperneck 27.1889 1.34039 -2.25756
head 11.7337 0.873391 -1.24682
rclavicle 7.84811e-015 -2.79292e-014
rhumerus -29.2181 -1.84714 -84.3469
rradius 22.9123
rwrist -9.2199
rhand -9.41095 28.2533
rfingers 7.12502
rthumb 16.5508 -1.06082
lclavicle 7.84811e-015 -2.79292e-014
lhumerus -34.1073 -22.4125 98.8896
lradius 24.9235
lwrist 21.7936
lhand -14.0456 -27.2587
lfingers 7.12502
lthumb 12.0851 2.37231
rfemur -15.6105 11.1057 13.9502
rtibia 33.5452
rfoot -27.9004 -18.5869
rtoes 8.5081
lfemur -4.73457 -5.68235 -21.1615
ltibia 16.9926
lfoot -17.8002 17.2944
ltoes 4.60866
10
root 3.923 16.4076 -0.444581 31.0673 85.0104 25.6588
lowerback -3.80503 0.608989 -6.31363
upperback -1.60265 1.05935 -0.0615746
thorax 0.367383 0.56686 3.51996
lowerneck -16.7444 0.920346 3.74783
upperneck 27.1789 1.28208 -2.136
head 11.6949 0.862815 -1.20607
rclavicle 1.45206e-016 -1.49089e-015
rhumerus -29.2948 -1.62044 -84.4779
rradius 23.1239
rwrist -9.49974
rhand -9.29672 27.997
rfingers 7.12502
rthumb 16.6608 -1.30793
lclavicle 1.45206e-016 -1.49089e-015
lhumerus -34.3835 -22.6237 99.1537
lradius 24.979
lwrist 21.9804
lhand -14.1854 -27.5213
lfingers 7.12502
lthumb 11.9503 2.11763
rfemur -15.5893 11.1637 14.2366
rtibia 33.477
rfoot -28.1382 -18.4095
rtoes 8.50511
lfemur -4.82207 -5.92468 -20.8822
ltibia 17.0692
lfoot -17.856 17.4208
ltoes 4.70007
11
root 3.92681 16.4086 -0.430292 29.7175 85.0225 24.2765
lowerback -3.86441 0.667152 -6.19248
upperback -1.56587 1.13748 -0.0598136
thorax 0.432858 0.602268 3.45808
lowerneck -16.8566 0.815753 3.71279
upperneck 27.2178 1.10608 -2.03433
head 11.7256 0.792331 -1.18875
rclavicle -1.9689e-014 5.96354e-015
rhumerus -29.196 -1.7586 -84.4987
rradius 23.1771
rwrist -9.51391
rhand -9.19974 27.9464
rfingers 7.12502
rthumb 16.7542 -1.35067
lclavicle -1.9689e-014 5.96354e-015
lhumerus -34.4188 -22.6419 99.1922
lradius 25.0117
lwrist 21.5091
lhand -14.277 -27.7412
lfingers 7.12502
lthumb 11.862 1.90277
rfemur -15.5785 11.2817 14.4131
rtibia 33.4255
rfoot -28.4717 -18.368
rtoes 8.52644
lfemur -4.84321 -6.10681 -20.718
ltibia 17.1151
lfoot -17.9964 17.6208
ltoes 5.1216
12
root 3.92876 16.4082 -0.419413 30.5211 84.9364 25.0177
lowerback -3.95107 0.671198 -6.30193
upperback -1.55662 1.15405 -0.0715665
thorax 0.486971 0.609201 3.50965
lowerneck -16.8791 0.85601 3.84612
upperneck 27.1021 1.17849 -2.2492
head 11.6898 0.807507 -1.28025
rclavicle 3.20851e-015 -5.36719e-015
rhumerus -29.0798 -1.6265 -84.5479
rradius 23.0987
rwrist -9.54472
rhand -9.28104 28.1103
rfingers 7.12502
rthumb 16.6759 -1.19335
lclavicle 3.20851e-015 -5.36719e-015
lhumerus -34.4088 -22.4332 99.2
lradius 25.0375
lwrist 21.0598
lhand -13.9263 -27.2829
lfingers 7.12502
lthumb 12.2002 2.34127
rfemur -15.6174 11.276 14.3318
rtibia 33.3924
rfoot -28.4516 -18.3796
rtoes 8.253
lfemur -4.90652 -6.19318 -20.7864
ltibia 17.1381
lfoot -17.9878 17.8228
ltoes 5.36889
13
root 3.9323 16.4081 -0.407443 31.9222 85.0556 26.3585
lowerback -4.17954 0.584506 -6.34829
upperback -1.42141 1.06069 -0.0546164
thorax 0.763252 0.550294 3.55495
lowerneck -17.0487 0.918831 3.91579
upperneck 26.9595 1.27307 -2.40918
head 11.6738 0.829708 -1.33711
rclavicle 2.12777e-014 -9.14409e-015
rhumerus -28.7486 -1.52352 -84.5777
rradius 22.9594
rwrist -9.47889
rhand -9.28163 28.3181
rfingers 7.12502
rthumb 16.6753 -0.985627
lclavicle 2.12777e-014 -9.14409e-015
lhumerus -34.2799 -22.5484 99.2915
lradius 25.1394
lwrist 21.2746
lhand -13.3052 -26.528
lfingers 7.12502
lthumb 12.799 3.0596
rfemur -15.6036 11.2166 14.3259
rtibia 33.3886
rfoot -28.4313 -18.5356
rtoes 8.06738
lfemur -4.96701 -6.10762 -20.7731
ltibia 17.1046
lfoot -17.7761 17.7115
ltoes 5.12056
